<?xml version="1.0" encoding="UTF-8" standalone="no"?>
<!DOCTYPE svg PUBLIC "-//W3C//DTD SVG 1.1//EN" "http://www.w3.org/Graphics/SVG/1.1/DTD/svg11.dtd">
<svg xmlns="http://www.w3.org/2000/svg" viewBox="0 0 1090 514" width="1090" height="514" preserveAspectRatio="xMidYMid meet" style="width: 100%; height: 100%; transform: translate3d(0px, 0px, 0px);"><defs><clipPath id="__lottie_element_2"><rect width="1090" height="514" x="0" y="0"></rect></clipPath><clipPath id="__lottie_element_7"><path d="M0,0 L1090,0 L1090,514 L0,514z"></path></clipPath><clipPath id="__lottie_element_23"><path d="M0,0 L1090,0 L1090,514 L0,514z"></path></clipPath><clipPath id="__lottie_element_27"><path d="M0,0 L1090,0 L1090,514 L0,514z"></path></clipPath></defs><g clip-path="url(#__lottie_element_2)"><g clip-path="url(#__lottie_element_23)" style="display: block;" transform="matrix(1.6100000143051147,0,0,1.6100000143051147,-332.45001220703125,-156.76998901367188)" opacity="1"><g style="display: block;" transform="matrix(1,0,0,1,435.39599609375,214.10800170898438)" opacity="1"><g opacity="1" transform="matrix(1,0,0,1,46.43899917602539,43.51599884033203)"><path fill="rgb(255,255,255)" fill-opacity="1" d=" M-26.965999603271484,6.98799991607666 C-27.44099998474121,7.164000034332275 -27.805999755859375,7.285999774932861 -28.08099937438965,7.355000019073486 C-28.08099937438965,7.355000019073486 -31.118999481201172,2.8550000190734863 -31.118999481201172,2.8550000190734863 C-31.118999481201172,2.8550000190734863 -31.118999481201172,39.26599884033203 -31.118999481201172,39.26599884033203 C-31.118999481201172,39.26599884033203 -43.15299987792969,39.26599884033203 -43.15299987792969,39.26599884033203 C-43.15299987792969,39.26599884033203 -43.15299987792969,-20.065000534057617 -43.15299987792969,-20.065000534057617 C-43.0880012512207,-21.8439998626709 -42.10900115966797,-22.722999572753906 -40.220001220703125,-22.722999572753906 C-40.220001220703125,-22.722999572753906 -21.80500030517578,-22.722999572753906 -21.80500030517578,-22.722999572753906 C-23.893999099731445,-26.759000778198242 -24.941999435424805,-28.875 -24.941999435424805,-29.055999755859375 C-24.941999435424805,-29.055999755859375 -46.18899917602539,-29.055999755859375 -46.18899917602539,-29.055999755859375 C-46.18899917602539,-29.055999755859375 -46.18899917602539,-39.59299850463867 -46.18899917602539,-39.59299850463867 C-46.18899917602539,-39.59299850463867 -5.918000221252441,-39.59299850463867 -5.918000221252441,-39.59299850463867 C-5.918000221252441,-39.59299850463867 -5.918000221252441,-43.26599884033203 -5.918000221252441,-43.26599884033203 C-5.918000221252441,-43.26599884033203 6.123000144958496,-43.26599884033203 6.123000144958496,-43.26599884033203 C6.123000144958496,-43.26599884033203 6.123000144958496,-39.59299850463867 6.123000144958496,-39.59299850463867 C6.123000144958496,-39.59299850463867 46.18899917602539,-39.59299850463867 46.18899917602539,-39.59299850463867 C46.18899917602539,-39.59299850463867 46.18899917602539,-29.055999755859375 46.18899917602539,-29.055999755859375 C46.18899917602539,-29.055999755859375 24.035999298095703,-29.055999755859375 24.035999298095703,-29.055999755859375 C22.74799919128418,-25.57200050354004 22.007999420166016,-23.45800018310547 21.808000564575195,-22.722999572753906 C21.808000564575195,-22.722999572753906 39.91299819946289,-22.722999572753906 39.91299819946289,-22.722999572753906 C41.94499969482422,-22.660999298095703 42.95199966430664,-21.780000686645508 42.95199966430664,-20.065000534057617 C42.95199966430664,-20.065000534057617 42.95199966430664,32.930999755859375 42.95199966430664,32.930999755859375 C42.87799835205078,36.42599868774414 40.99700164794922,39.07899856567383 37.28900146484375,40.90599822998047 C33.17499923706055,42.80500030517578 27.06999969482422,43.26599884033203 18.958999633789062,42.28499984741211 C18.958999633789062,42.28499984741211 18.059999465942383,32.38199996948242 18.059999465942383,32.38199996948242 C18.059999465942383,32.38199996948242 -23.82900047302246,32.38199996948242 -23.82900047302246,32.38199996948242 C-25.920000076293945,32.32400131225586 -26.965999603271484,31.349000930786133 -26.965999603271484,29.445999145507812 C-26.965999603271484,29.445999145507812 -26.965999603271484,7.448999881744385 -26.965999603271484,7.448999881744385 C-26.965999603271484,7.448999881744385 -26.965999603271484,6.98799991607666 -26.965999603271484,6.98799991607666z M-19.280000686645508,-8.609000205993652 C-18.19499969482422,-9.527000427246094 -17.319000244140625,-10.708999633789062 -16.642000198364258,-12.187000274658203 C-16.642000198364258,-12.187000274658203 -30.202999114990234,-12.187000274658203 -30.202999114990234,-12.187000274658203 C-30.809999465942383,-12.187000274658203 -31.118999481201172,-11.909000396728516 -31.118999481201172,-11.354000091552734 C-31.118999481201172,-11.354000091552734 -31.118999481201172,-3.1059999465942383 -31.118999481201172,-3.1059999465942383 C-25.45800018310547,-4.869999885559082 -21.49799919128418,-6.716000080108643 -19.280000686645508,-8.609000205993652z M26.360000610351562,7.448999881744385 C26.360000610351562,7.448999881744385 26.360000610351562,29.445999145507812 26.360000610351562,29.445999145507812 C26.301000595092773,30.615999221801758 25.916000366210938,31.413999557495117 25.242000579833984,31.832000732421875 C26.253000259399414,31.773000717163086 27.104000091552734,31.625 27.777000427246094,31.37700080871582 C29.86400032043457,30.52199935913086 30.910999298095703,29.333999633789062 30.910999298095703,27.79199981689453 C30.910999298095703,27.79199981689453 30.910999298095703,3.7750000953674316 30.910999298095703,3.7750000953674316 C30.910999298095703,3.7750000953674316 9.352999687194824,3.7750000953674316 9.352999687194824,3.7750000953674316 C5.6529998779296875,3.7170000076293945 3.7990000247955322,1.9980000257492065 3.7990000247955322,-1.3600000143051147 C3.7990000247955322,-1.3600000143051147 3.7990000247955322,-12.187000274658203 3.7990000247955322,-12.187000274658203 C3.7990000247955322,-12.187000274658203 -4.0970001220703125,-12.187000274658203 -4.0970001220703125,-12.187000274658203 C-4.500999927520752,-10.833999633789062 -4.914999961853027,-9.527000427246094 -5.310999870300293,-8.239999771118164 C-7.539000034332275,-3.9070000648498535 -12.598999977111816,0.38999998569488525 -20.486000061035156,4.590000152587891 C-20.486000061035156,4.590000152587891 23.121999740600586,4.590000152587891 23.121999740600586,4.590000152587891 C25.283000946044922,4.590000152587891 26.360000610351562,5.548999786376953 26.360000610351562,7.448999881744385z M13.704000473022461,14.779999732971191 C13.704000473022461,14.779999732971191 -14.418999671936035,14.779999732971191 -14.418999671936035,14.779999732971191 C-14.817000389099121,14.84000015258789 -14.994999885559082,14.991000175476074 -14.92300033569336,15.234000205993652 C-14.92300033569336,15.234000205993652 -14.92300033569336,21.658000946044922 -14.92300033569336,21.658000946044922 C-14.994999885559082,21.95800018310547 -14.817000389099121,22.145999908447266 -14.418999671936035,22.208999633789062 C-14.418999671936035,22.208999633789062 13.704000473022461,22.208999633789062 13.704000473022461,22.208999633789062 C14.116000175476074,22.084999084472656 14.314000129699707,21.902999877929688 14.314000129699707,21.658000946044922 C14.314000129699707,21.658000946044922 14.314000129699707,15.234000205993652 14.314000129699707,15.234000205993652 C14.314000129699707,14.930999755859375 14.116000175476074,14.779999732971191 13.704000473022461,14.779999732971191z M-9.053999900817871,-22.722999572753906 C-9.053999900817871,-22.722999572753906 9.156999588012695,-22.722999572753906 9.156999588012695,-22.722999572753906 C9.968000411987305,-24.743999481201172 10.803999900817871,-26.85700035095215 11.692000389099121,-29.055999755859375 C11.692000389099121,-29.055999755859375 -11.984999656677246,-29.055999755859375 -11.984999656677246,-29.055999755859375 C-10.848999977111816,-27.040000915527344 -9.862000465393066,-24.92300033569336 -9.053999900817871,-22.722999572753906z M18.76300048828125,-6.40500020980835 C18.76300048828125,-6.40500020980835 30.910999298095703,-6.40500020980835 30.910999298095703,-6.40500020980835 C30.910999298095703,-6.40500020980835 30.910999298095703,-11.354000091552734 30.910999298095703,-11.354000091552734 C30.910999298095703,-11.909000396728516 30.56999969482422,-12.187000274658203 29.895999908447266,-12.187000274658203 C29.895999908447266,-12.187000274658203 15.831000328063965,-12.187000274658203 15.831000328063965,-12.187000274658203 C15.831000328063965,-12.187000274658203 15.831000328063965,-9.161999702453613 15.831000328063965,-9.161999702453613 C15.902000427246094,-7.315999984741211 16.8799991607666,-6.40500020980835 18.76300048828125,-6.40500020980835z"></path></g></g><g style="display: block;" transform="matrix(1,0,0,1,534.9000244140625,211.70999145507812)" opacity="1"><g opacity="1" transform="matrix(1,0,0,1,46.4379997253418,43.066001892089844)"><path fill="rgb(255,255,255)" fill-opacity="1" d=" M37.95600128173828,39.89099884033203 C37.88999938964844,41.84000015258789 36.81999969482422,42.816001892089844 34.75199890136719,42.816001892089844 C34.75199890136719,42.816001892089844 -30.326000213623047,42.816001892089844 -30.326000213623047,42.816001892089844 C-32.4010009765625,42.770999908447266 -33.441001892089844,41.777000427246094 -33.441001892089844,39.89099884033203 C-33.441001892089844,39.89099884033203 -33.441001892089844,5.960000038146973 -33.441001892089844,5.960000038146973 C-35.446998596191406,6.822000026702881 -37.58599853515625,7.636000156402588 -39.869998931884766,8.428000450134277 C-39.869998931884766,8.428000450134277 -46.1879997253418,-1.281999945640564 -46.1879997253418,-1.281999945640564 C-36.619998931884766,-3.6740000247955322 -29.690000534057617,-7.432000160217285 -25.400999069213867,-12.559000015258789 C-25.400999069213867,-12.559000015258789 -41.68199920654297,-12.559000015258789 -41.68199920654297,-12.559000015258789 C-41.68199920654297,-12.559000015258789 -41.68199920654297,-22.014999389648438 -41.68199920654297,-22.014999389648438 C-41.68199920654297,-22.014999389648438 -39.257999420166016,-22.014999389648438 -39.257999420166016,-22.014999389648438 C-41.141998291015625,-24.277000427246094 -42.981998443603516,-25.982999801635742 -44.784000396728516,-27.139999389648438 C-39.89899826049805,-31.177000045776367 -36.047000885009766,-36.40399932861328 -33.23899841308594,-42.816001892089844 C-33.23899841308594,-42.816001892089844 -22.395999908447266,-38.05400085449219 -22.395999908447266,-38.05400085449219 C-22.659000396728516,-37.75400161743164 -22.82900047302246,-37.47700119018555 -22.89900016784668,-37.229000091552734 C-22.89900016784668,-37.229000091552734 3.4140000343322754,-37.229000091552734 3.4140000343322754,-37.229000091552734 C3.4140000343322754,-37.229000091552734 3.4140000343322754,-28.152000427246094 3.4140000343322754,-28.152000427246094 C3.4140000343322754,-28.152000427246094 -11.043999671936035,-28.152000427246094 -11.043999671936035,-28.152000427246094 C-11.043999671936035,-28.152000427246094 -11.043999671936035,-22.014999389648438 -11.043999671936035,-22.014999389648438 C-11.043999671936035,-22.014999389648438 5.415999889373779,-22.014999389648438 5.415999889373779,-22.014999389648438 C5.415999889373779,-22.014999389648438 5.415999889373779,-12.559000015258789 5.415999889373779,-12.559000015258789 C5.415999889373779,-12.559000015258789 -6.833000183105469,-12.559000015258789 -6.833000183105469,-12.559000015258789 C-2.2739999294281006,-9.812999725341797 2.2079999446868896,-6.874000072479248 6.625,-3.76200008392334 C6.625,-3.76200008392334 1.5,2.569000005722046 1.5,2.569000005722046 C1.5,2.569000005722046 34.75199890136719,2.569000005722046 34.75199890136719,2.569000005722046 C36.887001037597656,2.569000005722046 37.95600128173828,3.509999990463257 37.95600128173828,5.406000137329102 C37.95600128173828,5.406000137329102 37.95600128173828,39.89099884033203 37.95600128173828,39.89099884033203z M-22.195999145507812,-22.014999389648438 C-22.195999145507812,-22.014999389648438 -22.195999145507812,-28.152000427246094 -22.195999145507812,-28.152000427246094 C-22.195999145507812,-28.152000427246094 -28.822999954223633,-28.152000427246094 -28.822999954223633,-28.152000427246094 C-30.29199981689453,-26.24799919128418 -32.1349983215332,-24.211000442504883 -34.34400177001953,-22.014999389648438 C-34.34400177001953,-22.014999389648438 -22.195999145507812,-22.014999389648438 -22.195999145507812,-22.014999389648438z M-26.711000442504883,2.569000005722046 C-26.711000442504883,2.569000005722046 -3.4170000553131104,2.569000005722046 -3.4170000553131104,2.569000005722046 C-7.224999904632568,-0.48899999260902405 -11.480999946594238,-3.6740000247955322 -16.166000366210938,-6.968999862670898 C-18.312000274658203,-3.7920000553131104 -21.493000030517578,-0.8180000185966492 -25.711000442504883,1.9270000457763672 C-26.10700035095215,2.114000082015991 -26.44099998474121,2.3269999027252197 -26.711000442504883,2.569000005722046z M-21.493000030517578,17.238000869750977 C-21.493000030517578,17.238000869750977 26.014999389648438,17.238000869750977 26.014999389648438,17.238000869750977 C26.014999389648438,17.238000869750977 26.014999389648438,13.20199966430664 26.014999389648438,13.20199966430664 C26.014999389648438,12.897000312805176 25.81100082397461,12.743000030517578 25.40399932861328,12.743000030517578 C25.40399932861328,12.743000030517578 -20.989999771118164,12.743000030517578 -20.989999771118164,12.743000030517578 C-21.388999938964844,12.807999610900879 -21.555999755859375,12.958000183105469 -21.493000030517578,13.20199966430664 C-21.493000030517578,13.20199966430664 -21.493000030517578,17.238000869750977 -21.493000030517578,17.238000869750977z M26.014999389648438,27.42099952697754 C26.014999389648438,27.42099952697754 -21.493000030517578,27.42099952697754 -21.493000030517578,27.42099952697754 C-21.493000030517578,27.42099952697754 -21.493000030517578,32.0890007019043 -21.493000030517578,32.0890007019043 C-21.555999755859375,32.39799880981445 -21.388999938964844,32.584999084472656 -20.989999771118164,32.637001037597656 C-20.989999771118164,32.637001037597656 25.40399932861328,32.637001037597656 25.40399932861328,32.637001037597656 C25.81100082397461,32.520999908447266 26.014999389648438,32.33700180053711 26.014999389648438,32.0890007019043 C26.014999389648438,32.0890007019043 26.014999389648438,27.42099952697754 26.014999389648438,27.42099952697754z M46.1879997253418,-0.8180000185966492 C46.1879997253418,0.1459999978542328 45.65700149536133,0.6389999985694885 44.58300018310547,0.6389999985694885 C44.58300018310547,0.6389999985694885 8.4350004196167,0.6389999985694885 8.4350004196167,0.6389999985694885 C7.427999973297119,0.6389999985694885 6.923999786376953,0.1459999978542328 6.923999786376953,-0.8180000185966492 C6.923999786376953,-0.8180000185966492 6.923999786376953,-36.40399932861328 6.923999786376953,-36.40399932861328 C6.923999786376953,-37.32699966430664 7.427999973297119,-37.77899932861328 8.4350004196167,-37.77899932861328 C8.4350004196167,-37.77899932861328 44.58300018310547,-37.77899932861328 44.58300018310547,-37.77899932861328 C45.65700149536133,-37.77899932861328 46.1879997253418,-37.32699966430664 46.1879997253418,-36.40399932861328 C46.1879997253418,-36.40399932861328 46.1879997253418,-0.8180000185966492 46.1879997253418,-0.8180000185966492z M34.14500045776367,-28.33099937438965 C34.14500045776367,-28.33099937438965 18.87700080871582,-28.33099937438965 18.87700080871582,-28.33099937438965 C18.54400062561035,-28.270000457763672 18.402999877929688,-28.121000289916992 18.4689998626709,-27.8799991607666 C18.4689998626709,-27.8799991607666 18.4689998626709,-9.347999572753906 18.4689998626709,-9.347999572753906 C18.4689998626709,-9.04800033569336 18.60700035095215,-8.873000144958496 18.87700080871582,-8.805000305175781 C18.87700080871582,-8.805000305175781 34.14500045776367,-8.805000305175781 34.14500045776367,-8.805000305175781 C34.47800064086914,-8.930000305175781 34.64099884033203,-9.100000381469727 34.64099884033203,-9.347999572753906 C34.64099884033203,-9.347999572753906 34.64099884033203,-27.8799991607666 34.64099884033203,-27.8799991607666 C34.57400131225586,-28.184999465942383 34.40399932861328,-28.33099937438965 34.14500045776367,-28.33099937438965z"></path></g></g><g style="display: block;" transform="matrix(1,0,0,1,635.718017578125,214.10800170898438)" opacity="1"><g opacity="1" transform="matrix(1,0,0,1,46.44300079345703,43.277000427246094)"><path fill="rgb(255,255,255)" fill-opacity="1" d=" M13.123000144958496,25.618999481201172 C13.123000144958496,25.618999481201172 -6.123000144958496,25.618999481201172 -6.123000144958496,25.618999481201172 C-7.236000061035156,25.618999481201172 -7.807000160217285,25.049999237060547 -7.807000160217285,23.91200065612793 C-7.807000160217285,23.91200065612793 -7.807000160217285,10.559000015258789 -7.807000160217285,10.559000015258789 C-7.807000160217285,10.559000015258789 -14.019000053405762,15.961000442504883 -14.019000053405762,15.961000442504883 C-15.60200023651123,13.685999870300293 -17.371999740600586,11.376999855041504 -19.354999542236328,9.048999786376953 C-19.354999542236328,9.048999786376953 -19.354999542236328,43.027000427246094 -19.354999542236328,43.027000427246094 C-19.354999542236328,43.027000427246094 -31.091999053955078,43.027000427246094 -31.091999053955078,43.027000427246094 C-31.091999053955078,43.027000427246094 -31.091999053955078,10.189000129699707 -31.091999053955078,10.189000129699707 C-33.263999938964844,12.012999534606934 -35.4739990234375,13.812000274658203 -37.70500183105469,15.571000099182129 C-37.70500183105469,15.571000099182129 -46.19300079345703,6.300000190734863 -46.19300079345703,6.300000190734863 C-34.61899948120117,-1.3930000066757202 -26.023000717163086,-11.125 -20.434999465942383,-22.84600067138672 C-20.434999465942383,-22.84600067138672 -41.85599899291992,-22.84600067138672 -41.85599899291992,-22.84600067138672 C-41.85599899291992,-22.84600067138672 -41.85599899291992,-34.11899948120117 -41.85599899291992,-34.11899948120117 C-41.85599899291992,-34.11899948120117 -31.091999053955078,-34.11899948120117 -31.091999053955078,-34.11899948120117 C-31.091999053955078,-34.11899948120117 -31.091999053955078,-43.027000427246094 -31.091999053955078,-43.027000427246094 C-31.091999053955078,-43.027000427246094 -19.354999542236328,-43.027000427246094 -19.354999542236328,-43.027000427246094 C-19.354999542236328,-43.027000427246094 -19.354999542236328,-34.11899948120117 -19.354999542236328,-34.11899948120117 C-19.354999542236328,-34.11899948120117 -11.85099983215332,-34.11899948120117 -11.85099983215332,-34.11899948120117 C-11.85099983215332,-34.11899948120117 -7.807000160217285,-31.19499969482422 -7.807000160217285,-31.19499969482422 C-7.807000160217285,-31.19499969482422 -7.807000160217285,-32.89099884033203 -7.807000160217285,-32.89099884033203 C-7.739999771118164,-33.96500015258789 -7.172999858856201,-34.5 -6.123000144958496,-34.5 C-6.123000144958496,-34.5 13.123000144958496,-34.5 13.123000144958496,-34.5 C13.123000144958496,-34.5 13.123000144958496,-43.027000427246094 13.123000144958496,-43.027000427246094 C13.123000144958496,-43.027000427246094 24.871999740600586,-43.027000427246094 24.871999740600586,-43.027000427246094 C24.871999740600586,-43.027000427246094 24.871999740600586,-34.5 24.871999740600586,-34.5 C24.871999740600586,-34.5 44.409000396728516,-34.5 44.409000396728516,-34.5 C45.59700012207031,-34.4370002746582 46.19300079345703,-33.89899826049805 46.19300079345703,-32.89099884033203 C46.19300079345703,-32.89099884033203 46.19300079345703,23.91200065612793 46.19300079345703,23.91200065612793 C46.19300079345703,25.049999237060547 45.59700012207031,25.618999481201172 44.409000396728516,25.618999481201172 C44.409000396728516,25.618999481201172 24.871999740600586,25.618999481201172 24.871999740600586,25.618999481201172 C24.871999740600586,25.618999481201172 24.871999740600586,43.027000427246094 24.871999740600586,43.027000427246094 C24.871999740600586,43.027000427246094 13.123000144958496,43.027000427246094 13.123000144958496,43.027000427246094 C13.123000144958496,43.027000427246094 13.123000144958496,25.618999481201172 13.123000144958496,25.618999481201172z M-7.807000160217285,5.633999824523926 C-7.807000160217285,5.633999824523926 -7.807000160217285,-23.32900047302246 -7.807000160217285,-23.32900047302246 C-10.045000076293945,-18.03700065612793 -13.352999687194824,-11.791000366210938 -17.777999877929688,-4.583000183105469 C-14.345000267028809,-1.36899995803833 -11.029000282287598,2.0390000343322754 -7.807000160217285,5.633999824523926z M3.941999912261963,-10.270000457763672 C3.941999912261963,-10.270000457763672 13.123000144958496,-10.270000457763672 13.123000144958496,-10.270000457763672 C13.123000144958496,-10.270000457763672 13.123000144958496,-23.246000289916992 13.123000144958496,-23.246000289916992 C13.123000144958496,-23.246000289916992 4.438000202178955,-23.246000289916992 4.438000202178955,-23.246000289916992 C4.105000019073486,-23.166000366210938 3.941999912261963,-23.016000747680664 3.941999912261963,-22.759000778198242 C3.941999912261963,-22.759000778198242 3.941999912261963,-10.270000457763672 3.941999912261963,-10.270000457763672z M13.123000144958496,0.9990000128746033 C13.123000144958496,0.9990000128746033 3.941999912261963,0.9990000128746033 3.941999912261963,0.9990000128746033 C3.941999912261963,0.9990000128746033 3.941999912261963,13.784000396728516 3.941999912261963,13.784000396728516 C4.005000114440918,14.154000282287598 4.175000190734863,14.35200023651123 4.438000202178955,14.35200023651123 C4.438000202178955,14.35200023651123 13.123000144958496,14.35200023651123 13.123000144958496,14.35200023651123 C13.123000144958496,14.35200023651123 13.123000144958496,0.9990000128746033 13.123000144958496,0.9990000128746033z M24.871999740600586,-10.270000457763672 C24.871999740600586,-10.270000457763672 34.439998626708984,-10.270000457763672 34.439998626708984,-10.270000457763672 C34.439998626708984,-10.270000457763672 34.439998626708984,-22.759000778198242 34.439998626708984,-22.759000778198242 C34.439998626708984,-23.072999954223633 34.24100112915039,-23.246000289916992 33.85599899291992,-23.246000289916992 C33.85599899291992,-23.246000289916992 24.871999740600586,-23.246000289916992 24.871999740600586,-23.246000289916992 C24.871999740600586,-23.246000289916992 24.871999740600586,-10.270000457763672 24.871999740600586,-10.270000457763672z M34.439998626708984,0.9990000128746033 C34.439998626708984,0.9990000128746033 24.871999740600586,0.9990000128746033 24.871999740600586,0.9990000128746033 C24.871999740600586,0.9990000128746033 24.871999740600586,14.35200023651123 24.871999740600586,14.35200023651123 C24.871999740600586,14.35200023651123 33.85599899291992,14.35200023651123 33.85599899291992,14.35200023651123 C34.24100112915039,14.35200023651123 34.439998626708984,14.154000282287598 34.439998626708984,13.784000396728516 C34.439998626708984,13.784000396728516 34.439998626708984,0.9990000128746033 34.439998626708984,0.9990000128746033z"></path></g></g><g style="display: block;" transform="matrix(1,0,0,1,738.364013671875,214.10897827148438)" opacity="1"><g opacity="1" transform="matrix(1,0,0,1,46.44300079345703,43.277000427246094)"><path fill="rgb(255,255,255)" fill-opacity="1" d=" M-39.00699996948242,-26.863000869750977 C-39.00699996948242,-26.863000869750977 -27.510000228881836,-25.63599967956543 -27.510000228881836,-25.63599967956543 C-27.843000411987305,-13.3149995803833 -30.27400016784668,1.2649999856948853 -34.78799819946289,18.07900047302246 C-34.78799819946289,18.07900047302246 -46.19300079345703,16.308000564575195 -46.19300079345703,16.308000564575195 C-41.67100143432617,-1.4420000314712524 -39.27299880981445,-15.82800006866455 -39.00699996948242,-26.863000869750977z M-14.581000328063965,-19.673999786376953 C-14.581000328063965,-19.673999786376953 -14.581000328063965,3.4089999198913574 -14.581000328063965,3.4089999198913574 C-14.581000328063965,3.4089999198913574 -14.581000328063965,4.064000129699707 -14.581000328063965,4.064000129699707 C-15.258000373840332,21.264999389648438 -22.281999588012695,34.250999450683594 -35.61800003051758,43.027000427246094 C-35.61800003051758,43.027000427246094 -45.16400146484375,34.89699935913086 -45.16400146484375,34.89699935913086 C-42.01900100708008,33.349998474121094 -39.27299880981445,31.4060001373291 -36.95000076293945,29.099000930786133 C-30.173999786376953,22.62700080871582 -26.7810001373291,14.069999694824219 -26.7810001373291,3.4089999198913574 C-26.7810001373291,3.4089999198913574 -26.7810001373291,-43.027000427246094 -26.7810001373291,-43.027000427246094 C-26.7810001373291,-43.027000427246094 -14.581000328063965,-43.027000427246094 -14.581000328063965,-43.027000427246094 C-14.581000328063965,-43.027000427246094 -14.581000328063965,-25.929000854492188 -14.581000328063965,-25.929000854492188 C-14.581000328063965,-25.929000854492188 -4.420000076293945,-26.958999633789062 -4.420000076293945,-26.958999633789062 C-1.2710000276565552,-10.62600040435791 0.6159999966621399,3.9790000915527344 1.2230000495910645,16.864999771118164 C1.2230000495910645,16.864999771118164 -10.059000015258789,17.145000457763672 -10.059000015258789,17.145000457763672 C-10.529999732971191,8.369000434875488 -12.053000450134277,-3.9049999713897705 -14.581000328063965,-19.673999786376953z M14.984999656677246,-20.604000091552734 C14.984999656677246,-20.604000091552734 14.984999656677246,35.17499923706055 14.984999656677246,35.17499923706055 C14.984999656677246,35.17499923706055 2.7769999504089355,35.17499923706055 2.7769999504089355,35.17499923706055 C2.7769999504089355,35.17499923706055 2.7769999504089355,-41.15700149536133 2.7769999504089355,-41.15700149536133 C2.7769999504089355,-41.15700149536133 14.984999656677246,-41.15700149536133 14.984999656677246,-41.15700149536133 C14.984999656677246,-41.15700149536133 14.984999656677246,-26.020999908447266 14.984999656677246,-26.020999908447266 C14.984999656677246,-26.020999908447266 24.945999145507812,-27.511999130249023 24.945999145507812,-27.511999130249023 C25.833999633789062,-24.016000747680664 27.198999404907227,-17.666000366210938 29.05299949645996,-8.460000038146973 C30.96299934387207,0.382999986410141 32.268001556396484,8.369000434875488 32.94599914550781,15.467000007629395 C32.94599914550781,15.467000007629395 21.759000778198242,16.308000564575195 21.759000778198242,16.308000564575195 C20.735000610351562,7.0929999351501465 18.469999313354492,-5.21999979019165 14.984999656677246,-20.604000091552734z M33.97800064086914,-43.027000427246094 C33.97800064086914,-43.027000427246094 46.19300079345703,-43.027000427246094 46.19300079345703,-43.027000427246094 C46.19300079345703,-43.027000427246094 46.19300079345703,40.4109992980957 46.19300079345703,40.4109992980957 C46.19300079345703,40.4109992980957 33.97800064086914,40.4109992980957 33.97800064086914,40.4109992980957 C33.97800064086914,40.4109992980957 33.97800064086914,-43.027000427246094 33.97800064086914,-43.027000427246094z"></path></g></g><g clip-path="url(#__lottie_element_27)" style="display: block;" transform="matrix(1,0,0,1,-238,0)" opacity="1"><g style="display: block;" transform="matrix(1,0,0,1,476.1860046386719,191.76100158691406)" opacity="1"><g opacity="1" transform="matrix(1,0,0,1,127.24700164794922,80.26799774169922)"><path fill="rgb(255,255,255)" fill-opacity="1" d=" M-16.527000427246094,-44.52399826049805 C-16.527000427246094,-44.52399826049805 16.527000427246094,-44.52399826049805 16.527000427246094,-44.52399826049805 C16.527000427246094,-44.52399826049805 16.527000427246094,44.52399826049805 16.527000427246094,44.52399826049805 C16.527000427246094,44.52399826049805 -16.527000427246094,44.52399826049805 -16.527000427246094,44.52399826049805 C-16.527000427246094,44.52399826049805 -16.527000427246094,-44.52399826049805 -16.527000427246094,-44.52399826049805z"></path></g><g opacity="1" transform="matrix(1,0,0,1,60.91899871826172,38.50899887084961)"><path fill="rgb(219,220,220)" fill-opacity="1" d=" M6.613999843597412,-38.25899887084961 C6.613999843597412,-38.25899887084961 -27.201000213623047,-38.25899887084961 -27.201000213623047,-38.25899887084961 C-27.201000213623047,-38.25899887084961 -27.201000213623047,-8.366000175476074 -27.201000213623047,-8.366000175476074 C-27.201000213623047,-8.366000175476074 -1.5720000267028809,-8.366000175476074 -1.5720000267028809,-8.366000175476074 C-1.5720000267028809,-8.366000175476074 -1.5720000267028809,10.39799976348877 -1.5720000267028809,10.39799976348877 C-1.5720000267028809,10.39799976348877 -27.777000427246094,10.39799976348877 -27.777000427246094,10.39799976348877 C-27.777000427246094,10.39799976348877 -27.777000427246094,38.25899887084961 -27.777000427246094,38.25899887084961 C-27.777000427246094,38.25899887084961 6.613999843597412,38.25899887084961 6.613999843597412,38.25899887084961 C21.16900062561035,38.25899887084961 27.777000427246094,32.637001037597656 27.777000427246094,15.494000434875488 C27.777000427246094,15.494000434875488 27.777000427246094,-15.496000289916992 27.777000427246094,-15.496000289916992 C27.777000427246094,-32.77799987792969 21.16900062561035,-38.25899887084961 6.613999843597412,-38.25899887084961z"></path></g><g opacity="1" transform="matrix(1,0,0,1,33.43000030517578,30.200000762939453)"><path fill="rgb(255,255,255)" fill-opacity="1" d=" M-0.2879999876022339,0.05700000002980232 C-0.2879999876022339,0.05700000002980232 0.2879999876022339,0.05700000002980232 0.2879999876022339,0.05700000002980232 C0.2879999876022339,0.05700000002980232 0.2879999876022339,-0.05700000002980232 0.2879999876022339,-0.05700000002980232 C0.2879999876022339,-0.05700000002980232 -0.2879999876022339,-0.05700000002980232 -0.2879999876022339,-0.05700000002980232 C-0.2879999876022339,-0.05700000002980232 -0.2879999876022339,0.05700000002980232 -0.2879999876022339,0.05700000002980232z"></path></g><g opacity="1" transform="matrix(1,0,0,1,48.659000396728516,77.50199890136719)"><path fill="rgb(255,255,255)" fill-opacity="1" d=" M24.277999877929688,-29.242000579833984 C24.277999877929688,-29.242000579833984 -14.942000389099121,-29.242000579833984 -14.942000389099121,-29.242000579833984 C-14.942000389099121,-29.242000579833984 -14.942000389099121,-47.290000915527344 -14.942000389099121,-47.290000915527344 C-14.942000389099121,-47.290000915527344 -48.40999984741211,-47.290000915527344 -48.40999984741211,-47.290000915527344 C-48.40999984741211,-47.290000915527344 -48.40999984741211,17.381999969482422 -48.40999984741211,17.381999969482422 C-48.40999984741211,17.381999969482422 -14.942000389099121,17.381999969482422 -14.942000389099121,17.381999969482422 C-14.942000389099121,17.381999969482422 -14.942000389099121,-0.5809999704360962 -14.942000389099121,-0.5809999704360962 C-14.942000389099121,-0.5809999704360962 14.946000099182129,-0.5809999704360962 14.946000099182129,-0.5809999704360962 C14.946000099182129,-0.5809999704360962 14.946000099182129,17.381999969482422 14.946000099182129,17.381999969482422 C14.946000099182129,17.381999969482422 -14.942000389099121,17.381999969482422 -14.942000389099121,17.381999969482422 C-14.942000389099121,17.381999969482422 -14.942000389099121,47.290000915527344 -14.942000389099121,47.290000915527344 C-14.942000389099121,47.290000915527344 24.277999877929688,47.290000915527344 24.277999877929688,47.290000915527344 C40.862998962402344,47.290000915527344 48.40999984741211,41.79999923706055 48.40999984741211,24.524999618530273 C48.40999984741211,24.524999618530273 48.40999984741211,-6.468999862670898 48.40999984741211,-6.468999862670898 C48.40999984741211,-23.613000869750977 40.862998962402344,-29.242000579833984 24.277999877929688,-29.242000579833984z"></path></g><g opacity="1" transform="matrix(1,0,0,1,127.24700164794922,15.404000282287598)"><path fill="rgb(255,255,255)" fill-opacity="1" d=" M-16.527000427246094,-14.862000465393066 C-16.527000427246094,-14.862000465393066 16.527000427246094,-14.862000465393066 16.527000427246094,-14.862000465393066 C16.527000427246094,-14.862000465393066 16.527000427246094,14.862000465393066 16.527000427246094,14.862000465393066 C16.527000427246094,14.862000465393066 -16.527000427246094,14.862000465393066 -16.527000427246094,14.862000465393066 C-16.527000427246094,14.862000465393066 -16.527000427246094,-14.862000465393066 -16.527000427246094,-14.862000465393066z"></path></g></g><g transform="matrix(1,0,0,1,1021,135.00900268554688)" opacity="1" style="display: block;"><g opacity="1" transform="matrix(0.1471100002527237,0,0,0.1471100002527237,-468.72698974609375,119.27300262451172)"><path fill="rgb(255,255,255)" fill-opacity="1" d=" M0,-40.27349853515625 C22.226943969726562,-40.27349853515625 40.27349853515625,-22.226943969726562 40.27349853515625,0 C40.27349853515625,22.226943969726562 22.226943969726562,40.27349853515625 0,40.27349853515625 C-22.226943969726562,40.27349853515625 -40.27349853515625,22.226943969726562 -40.27349853515625,0 C-40.27349853515625,-22.226943969726562 -22.226943969726562,-40.27349853515625 0,-40.27349853515625z"></path><path stroke-linecap="butt" stroke-linejoin="miter" fill-opacity="0" stroke-miterlimit="4" stroke="rgb(255,207,0)" stroke-opacity="1" stroke-width="0" d=" M0,-40.27349853515625 C22.226943969726562,-40.27349853515625 40.27349853515625,-22.226943969726562 40.27349853515625,0 C40.27349853515625,22.226943969726562 22.226943969726562,40.27349853515625 0,40.27349853515625 C-22.226943969726562,40.27349853515625 -40.27349853515625,22.226943969726562 -40.27349853515625,0 C-40.27349853515625,-22.226943969726562 -22.226943969726562,-40.27349853515625 0,-40.27349853515625z"></path></g></g><g transform="matrix(1.1123600006103516,0,0,1,1073,134.00799560546875)" opacity="1" style="display: block;"><g opacity="1" transform="matrix(0.1471100002527237,0,0,0.1471100002527237,-468.72698974609375,119.27300262451172)"><path fill="rgb(255,255,255)" fill-opacity="1" d=" M0,-40.27349853515625 C22.226943969726562,-40.27349853515625 40.27349853515625,-22.226943969726562 40.27349853515625,0 C40.27349853515625,22.226943969726562 22.226943969726562,40.27349853515625 0,40.27349853515625 C-22.226943969726562,40.27349853515625 -40.27349853515625,22.226943969726562 -40.27349853515625,0 C-40.27349853515625,-22.226943969726562 -22.226943969726562,-40.27349853515625 0,-40.27349853515625z"></path><path stroke-linecap="butt" stroke-linejoin="miter" fill-opacity="0" stroke-miterlimit="4" stroke="rgb(255,207,0)" stroke-opacity="1" stroke-width="0" d=" M0,-40.27349853515625 C22.226943969726562,-40.27349853515625 40.27349853515625,-22.226943969726562 40.27349853515625,0 C40.27349853515625,22.226943969726562 22.226943969726562,40.27349853515625 0,40.27349853515625 C-22.226943969726562,40.27349853515625 -40.27349853515625,22.226943969726562 -40.27349853515625,0 C-40.27349853515625,-22.226943969726562 -22.226943969726562,-40.27349853515625 0,-40.27349853515625z"></path></g></g></g></g><g clip-path="url(#__lottie_element_7)" transform="matrix(1,0,0,1,0,0)" opacity="1" style="display: block;"><g transform="matrix(0.9994249939918518,0,0,0.9994249939918518,472.1169128417969,320.3468933105469)" opacity="0.0011499999998542875" style="display: none;"><g opacity="1" transform="matrix(1,0,0,1,-339.31201171875,60.6879997253418)"><path fill="rgb(147,100,13)" fill-opacity="0" d=" M0,-29.6875 C16.384531021118164,-29.6875 29.6875,-16.384531021118164 29.6875,0 C29.6875,16.384531021118164 16.384531021118164,29.6875 0,29.6875 C-16.384531021118164,29.6875 -29.6875,16.384531021118164 -29.6875,0 C-29.6875,-16.384531021118164 -16.384531021118164,-29.6875 0,-29.6875z"></path><path stroke-linecap="butt" stroke-linejoin="miter" fill-opacity="0" stroke-miterlimit="4" stroke="rgb(255,255,255)" stroke-opacity="1" stroke-width="1" d=" M0,-29.6875 C16.384531021118164,-29.6875 29.6875,-16.384531021118164 29.6875,0 C29.6875,16.384531021118164 16.384531021118164,29.6875 0,29.6875 C-16.384531021118164,29.6875 -29.6875,16.384531021118164 -29.6875,0 C-29.6875,-16.384531021118164 -16.384531021118164,-29.6875 0,-29.6875z"></path></g></g><g style="display: none;" transform="matrix(0.9951059222221375,0,0,0.9951059222221375,1116.6513671875,249.6090087890625)" opacity="0.009788235294076486"><g opacity="1" transform="matrix(1,0,0,1,-339.31201171875,60.6879997253418)"><path fill="rgb(147,100,13)" fill-opacity="0" d=" M0,-29.6875 C16.384531021118164,-29.6875 29.6875,-16.384531021118164 29.6875,0 C29.6875,16.384531021118164 16.384531021118164,29.6875 0,29.6875 C-16.384531021118164,29.6875 -29.6875,16.384531021118164 -29.6875,0 C-29.6875,-16.384531021118164 -16.384531021118164,-29.6875 0,-29.6875z"></path><path stroke-linecap="butt" stroke-linejoin="miter" fill-opacity="0" stroke-miterlimit="4" stroke="rgb(255,255,255)" stroke-opacity="1" stroke-width="1" d=" M0,-29.6875 C16.384531021118164,-29.6875 29.6875,-16.384531021118164 29.6875,0 C29.6875,16.384531021118164 16.384531021118164,29.6875 0,29.6875 C-16.384531021118164,29.6875 -29.6875,16.384531021118164 -29.6875,0 C-29.6875,-16.384531021118164 -16.384531021118164,-29.6875 0,-29.6875z"></path></g></g><g style="display: none;" transform="matrix(0.9980544447898865,0,0,0.9980544447898865,913.65185546875,140.43006896972656)" opacity="0.0038911764705301267"><g opacity="1" transform="matrix(1,0,0,1,-339.31201171875,60.6879997253418)"><path fill="rgb(147,100,13)" fill-opacity="0" d=" M0,-29.6875 C16.384531021118164,-29.6875 29.6875,-16.384531021118164 29.6875,0 C29.6875,16.384531021118164 16.384531021118164,29.6875 0,29.6875 C-16.384531021118164,29.6875 -29.6875,16.384531021118164 -29.6875,0 C-29.6875,-16.384531021118164 -16.384531021118164,-29.6875 0,-29.6875z"></path><path stroke-linecap="butt" stroke-linejoin="miter" fill-opacity="0" stroke-miterlimit="4" stroke="rgb(255,255,255)" stroke-opacity="1" stroke-width="1" d=" M0,-29.6875 C16.384531021118164,-29.6875 29.6875,-16.384531021118164 29.6875,0 C29.6875,16.384531021118164 16.384531021118164,29.6875 0,29.6875 C-16.384531021118164,29.6875 -29.6875,16.384531021118164 -29.6875,0 C-29.6875,-16.384531021118164 -16.384531021118164,-29.6875 0,-29.6875z"></path></g></g><g style="display: none;" transform="matrix(0.9985014200210571,0,0,0.9985014200210571,913.8035278320312,140.4029541015625)" opacity="0.0029970588234608897"><g opacity="1" transform="matrix(1,0,0,1,-339.31201171875,60.6879997253418)"><path fill="rgb(147,100,13)" fill-opacity="0" d=" M0,-29.6875 C16.384531021118164,-29.6875 29.6875,-16.384531021118164 29.6875,0 C29.6875,16.384531021118164 16.384531021118164,29.6875 0,29.6875 C-16.384531021118164,29.6875 -29.6875,16.384531021118164 -29.6875,0 C-29.6875,-16.384531021118164 -16.384531021118164,-29.6875 0,-29.6875z"></path><path stroke-linecap="butt" stroke-linejoin="miter" fill-opacity="0" stroke-miterlimit="4" stroke="rgb(255,255,255)" stroke-opacity="1" stroke-width="1" d=" M0,-29.6875 C16.384531021118164,-29.6875 29.6875,-16.384531021118164 29.6875,0 C29.6875,16.384531021118164 16.384531021118164,29.6875 0,29.6875 C-16.384531021118164,29.6875 -29.6875,16.384531021118164 -29.6875,0 C-29.6875,-16.384531021118164 -16.384531021118164,-29.6875 0,-29.6875z"></path></g></g></g><g transform="matrix(1.1948238611221313,0,0,1.1948238611221313,40.82666015625,432.55047607421875)" opacity="0.025880555555682038" style="display: none;"><g opacity="1" transform="matrix(1,0,0,1,0,0)"><path fill="rgb(255,255,255)" fill-opacity="1" d=" M737.072998046875,-277.0559997558594 C721.5689697265625,-255.72300720214844 713.8259887695312,-229.74000549316406 713.8259887695312,-199.10800170898438 C713.8259887695312,-199.10800170898438 713.8259887695312,-108.30599975585938 713.8259887695312,-108.30599975585938 C713.8259887695312,-77.67400360107422 721.4840087890625,-51.69200134277344 736.7999877929688,-30.358999252319336 C752.1160278320312,-9.026000022888184 773.260986328125,1.6410000324249268 800.2520141601562,1.6410000324249268 C828.3280029296875,1.6410000324249268 850.0289916992188,-9.026000022888184 865.344970703125,-30.358999252319336 C880.6610107421875,-51.69200134277344 888.677978515625,-77.85299682617188 889.4130249023438,-108.85299682617188 C889.4130249023438,-108.85299682617188 889.4130249023438,-199.10800170898438 889.4130249023438,-199.10800170898438 C890.5070190429688,-238.8509979248047 882.8489990234375,-267.0220031738281 866.4390258789062,-283.6199951171875 C850.0289916992188,-300.2090148925781 828.3280029296875,-308.68798828125 801.3460083007812,-309.05499267578125 C773.9959716796875,-309.05499267578125 752.5679931640625,-298.3890075683594 737.072998046875,-277.0559997558594z M769.3460083007812,-54.15299987792969 C762.2349853515625,-62.5369987487793 758.6799926757812,-84.59700012207031 758.6799926757812,-120.33999633789062 C758.6799926757812,-120.33999633789062 758.6799926757812,-184.88600158691406 758.6799926757812,-184.88600158691406 C759.0390014648438,-222.08200073242188 762.68798828125,-244.68800354003906 769.6199951171875,-252.71400451660156 C776.5430297851562,-260.7309875488281 787.302978515625,-264.74798583984375 801.8930053710938,-264.74798583984375 C815.7470092773438,-264.74798583984375 825.9609985351562,-260.7309875488281 832.5250244140625,-252.71400451660156 C839.0889892578125,-244.68800354003906 842.9180297851562,-222.08200073242188 844.0120239257812,-184.88600158691406 C844.0120239257812,-184.88600158691406 844.0120239257812,-120.33999633789062 844.0120239257812,-120.33999633789062 C842.9180297851562,-84.59700012207031 839.0889892578125,-62.5369987487793 832.5250244140625,-54.15299987792969 C825.9609985351562,-45.7599983215332 815.7470092773438,-41.571998596191406 801.8930053710938,-41.571998596191406 C787.302978515625,-41.571998596191406 776.4569702148438,-45.7599983215332 769.3460083007812,-54.15299987792969z"></path><path stroke-linecap="butt" stroke-linejoin="miter" fill-opacity="0" stroke-miterlimit="4" stroke="rgb(0,0,0)" stroke-opacity="1" stroke-width="1" d=" M737.072998046875,-277.0559997558594 C721.5689697265625,-255.72300720214844 713.8259887695312,-229.74000549316406 713.8259887695312,-199.10800170898438 C713.8259887695312,-199.10800170898438 713.8259887695312,-108.30599975585938 713.8259887695312,-108.30599975585938 C713.8259887695312,-77.67400360107422 721.4840087890625,-51.69200134277344 736.7999877929688,-30.358999252319336 C752.1160278320312,-9.026000022888184 773.260986328125,1.6410000324249268 800.2520141601562,1.6410000324249268 C828.3280029296875,1.6410000324249268 850.0289916992188,-9.026000022888184 865.344970703125,-30.358999252319336 C880.6610107421875,-51.69200134277344 888.677978515625,-77.85299682617188 889.4130249023438,-108.85299682617188 C889.4130249023438,-108.85299682617188 889.4130249023438,-199.10800170898438 889.4130249023438,-199.10800170898438 C890.5070190429688,-238.8509979248047 882.8489990234375,-267.0220031738281 866.4390258789062,-283.6199951171875 C850.0289916992188,-300.2090148925781 828.3280029296875,-308.68798828125 801.3460083007812,-309.05499267578125 C773.9959716796875,-309.05499267578125 752.5679931640625,-298.3890075683594 737.072998046875,-277.0559997558594z M769.3460083007812,-54.15299987792969 C762.2349853515625,-62.5369987487793 758.6799926757812,-84.59700012207031 758.6799926757812,-120.33999633789062 C758.6799926757812,-120.33999633789062 758.6799926757812,-184.88600158691406 758.6799926757812,-184.88600158691406 C759.0390014648438,-222.08200073242188 762.68798828125,-244.68800354003906 769.6199951171875,-252.71400451660156 C776.5430297851562,-260.7309875488281 787.302978515625,-264.74798583984375 801.8930053710938,-264.74798583984375 C815.7470092773438,-264.74798583984375 825.9609985351562,-260.7309875488281 832.5250244140625,-252.71400451660156 C839.0889892578125,-244.68800354003906 842.9180297851562,-222.08200073242188 844.0120239257812,-184.88600158691406 C844.0120239257812,-184.88600158691406 844.0120239257812,-120.33999633789062 844.0120239257812,-120.33999633789062 C842.9180297851562,-84.59700012207031 839.0889892578125,-62.5369987487793 832.5250244140625,-54.15299987792969 C825.9609985351562,-45.7599983215332 815.7470092773438,-41.571998596191406 801.8930053710938,-41.571998596191406 C787.302978515625,-41.571998596191406 776.4569702148438,-45.7599983215332 769.3460083007812,-54.15299987792969z"></path></g><g opacity="1" transform="matrix(1,0,0,1,0,0)"><path fill="rgb(255,255,255)" fill-opacity="1" d=" M479.7130126953125,-217.70599365234375 C479.7130126953125,-217.70599365234375 520.1909790039062,-217.70599365234375 520.1909790039062,-217.70599365234375 C529.302001953125,-255.99600219726562 550.2760009765625,-270.7650146484375 583.0960083007812,-262.01300048828125 C609.7109985351562,-250.7050018310547 617.7360229492188,-230.28700256347656 607.1640014648438,-200.74899291992188 C607.1640014648438,-200.74899291992188 479.7130126953125,-44.854000091552734 479.7130126953125,-44.854000091552734 C479.7130126953125,-44.854000091552734 479.7130126953125,0 479.7130126953125,0 C479.7130126953125,0 654.7529907226562,0 654.7529907226562,0 C654.7529907226562,0 654.7529907226562,-44.854000091552734 654.7529907226562,-44.854000091552734 C654.7529907226562,-44.854000091552734 538.2420043945312,-44.854000091552734 538.2420043945312,-44.854000091552734 C538.2420043945312,-44.854000091552734 641.0780029296875,-168.4759979248047 641.0780029296875,-168.4759979248047 C653.1119995117188,-186.33900451660156 657.6669921875,-210.2270050048828 654.7529907226562,-240.13299560546875 C642.718994140625,-286.8070068359375 606.7960205078125,-309.05499267578125 546.9940185546875,-306.86700439453125 C505.0539855957031,-294.8330078125 482.62701416015625,-265.10699462890625 479.7130126953125,-217.70599365234375z"></path><path stroke-linecap="butt" stroke-linejoin="miter" fill-opacity="0" stroke-miterlimit="4" stroke="rgb(0,0,0)" stroke-opacity="1" stroke-width="1" d=" M479.7130126953125,-217.70599365234375 C479.7130126953125,-217.70599365234375 520.1909790039062,-217.70599365234375 520.1909790039062,-217.70599365234375 C529.302001953125,-255.99600219726562 550.2760009765625,-270.7650146484375 583.0960083007812,-262.01300048828125 C609.7109985351562,-250.7050018310547 617.7360229492188,-230.28700256347656 607.1640014648438,-200.74899291992188 C607.1640014648438,-200.74899291992188 479.7130126953125,-44.854000091552734 479.7130126953125,-44.854000091552734 C479.7130126953125,-44.854000091552734 479.7130126953125,0 479.7130126953125,0 C479.7130126953125,0 654.7529907226562,0 654.7529907226562,0 C654.7529907226562,0 654.7529907226562,-44.854000091552734 654.7529907226562,-44.854000091552734 C654.7529907226562,-44.854000091552734 538.2420043945312,-44.854000091552734 538.2420043945312,-44.854000091552734 C538.2420043945312,-44.854000091552734 641.0780029296875,-168.4759979248047 641.0780029296875,-168.4759979248047 C653.1119995117188,-186.33900451660156 657.6669921875,-210.2270050048828 654.7529907226562,-240.13299560546875 C642.718994140625,-286.8070068359375 606.7960205078125,-309.05499267578125 546.9940185546875,-306.86700439453125 C505.0539855957031,-294.8330078125 482.62701416015625,-265.10699462890625 479.7130126953125,-217.70599365234375z"></path></g><g opacity="1" transform="matrix(1,0,0,1,0,0)"><path fill="rgb(255,255,255)" fill-opacity="1" d=" M271.0350036621094,-277.0559997558594 C255.531005859375,-255.72300720214844 247.78799438476562,-229.74000549316406 247.78799438476562,-199.10800170898438 C247.78799438476562,-199.10800170898438 247.78799438476562,-108.30599975585938 247.78799438476562,-108.30599975585938 C247.78799438476562,-77.67400360107422 255.4459991455078,-51.69200134277344 270.7619934082031,-30.358999252319336 C286.0780029296875,-9.026000022888184 307.2229919433594,1.6410000324249268 334.2139892578125,1.6410000324249268 C362.2909851074219,1.6410000324249268 383.9909973144531,-9.026000022888184 399.3070068359375,-30.358999252319336 C414.62298583984375,-51.69200134277344 422.6400146484375,-77.85299682617188 423.375,-108.85299682617188 C423.375,-108.85299682617188 423.375,-199.10800170898438 423.375,-199.10800170898438 C424.468994140625,-238.8509979248047 416.8110046386719,-267.0220031738281 400.4010009765625,-283.6199951171875 C383.9909973144531,-300.2090148925781 362.2909851074219,-308.68798828125 335.3080139160156,-309.05499267578125 C307.9580078125,-309.05499267578125 286.5299987792969,-298.3890075683594 271.0350036621094,-277.0559997558594z M303.3080139160156,-54.15299987792969 C296.1969909667969,-62.5369987487793 292.6419982910156,-84.59700012207031 292.6419982910156,-120.33999633789062 C292.6419982910156,-120.33999633789062 292.6419982910156,-184.88600158691406 292.6419982910156,-184.88600158691406 C293.0010070800781,-222.08200073242188 296.6499938964844,-244.68800354003906 303.5820007324219,-252.71400451660156 C310.5050048828125,-260.7309875488281 321.2650146484375,-264.74798583984375 335.8550109863281,-264.74798583984375 C349.7090148925781,-264.74798583984375 359.9230041503906,-260.7309875488281 366.48699951171875,-252.71400451660156 C373.0509948730469,-244.68800354003906 376.8800048828125,-222.08200073242188 377.9739990234375,-184.88600158691406 C377.9739990234375,-184.88600158691406 377.9739990234375,-120.33999633789062 377.9739990234375,-120.33999633789062 C376.8800048828125,-84.59700012207031 373.0509948730469,-62.5369987487793 366.48699951171875,-54.15299987792969 C359.9230041503906,-45.7599983215332 349.7090148925781,-41.571998596191406 335.8550109863281,-41.571998596191406 C321.2650146484375,-41.571998596191406 310.41900634765625,-45.7599983215332 303.3080139160156,-54.15299987792969z"></path><path stroke-linecap="butt" stroke-linejoin="miter" fill-opacity="0" stroke-miterlimit="4" stroke="rgb(0,0,0)" stroke-opacity="1" stroke-width="1" d=" M271.0350036621094,-277.0559997558594 C255.531005859375,-255.72300720214844 247.78799438476562,-229.74000549316406 247.78799438476562,-199.10800170898438 C247.78799438476562,-199.10800170898438 247.78799438476562,-108.30599975585938 247.78799438476562,-108.30599975585938 C247.78799438476562,-77.67400360107422 255.4459991455078,-51.69200134277344 270.7619934082031,-30.358999252319336 C286.0780029296875,-9.026000022888184 307.2229919433594,1.6410000324249268 334.2139892578125,1.6410000324249268 C362.2909851074219,1.6410000324249268 383.9909973144531,-9.026000022888184 399.3070068359375,-30.358999252319336 C414.62298583984375,-51.69200134277344 422.6400146484375,-77.85299682617188 423.375,-108.85299682617188 C423.375,-108.85299682617188 423.375,-199.10800170898438 423.375,-199.10800170898438 C424.468994140625,-238.8509979248047 416.8110046386719,-267.0220031738281 400.4010009765625,-283.6199951171875 C383.9909973144531,-300.2090148925781 362.2909851074219,-308.68798828125 335.3080139160156,-309.05499267578125 C307.9580078125,-309.05499267578125 286.5299987792969,-298.3890075683594 271.0350036621094,-277.0559997558594z M303.3080139160156,-54.15299987792969 C296.1969909667969,-62.5369987487793 292.6419982910156,-84.59700012207031 292.6419982910156,-120.33999633789062 C292.6419982910156,-120.33999633789062 292.6419982910156,-184.88600158691406 292.6419982910156,-184.88600158691406 C293.0010070800781,-222.08200073242188 296.6499938964844,-244.68800354003906 303.5820007324219,-252.71400451660156 C310.5050048828125,-260.7309875488281 321.2650146484375,-264.74798583984375 335.8550109863281,-264.74798583984375 C349.7090148925781,-264.74798583984375 359.9230041503906,-260.7309875488281 366.48699951171875,-252.71400451660156 C373.0509948730469,-244.68800354003906 376.8800048828125,-222.08200073242188 377.9739990234375,-184.88600158691406 C377.9739990234375,-184.88600158691406 377.9739990234375,-120.33999633789062 377.9739990234375,-120.33999633789062 C376.8800048828125,-84.59700012207031 373.0509948730469,-62.5369987487793 366.48699951171875,-54.15299987792969 C359.9230041503906,-45.7599983215332 349.7090148925781,-41.571998596191406 335.8550109863281,-41.571998596191406 C321.2650146484375,-41.571998596191406 310.41900634765625,-45.7599983215332 303.3080139160156,-54.15299987792969z"></path></g><g opacity="1" transform="matrix(1,0,0,1,0,0)"><path fill="rgb(255,255,255)" fill-opacity="1" d=" M13.675000190734863,-217.70599365234375 C13.675000190734863,-217.70599365234375 54.15299987792969,-217.70599365234375 54.15299987792969,-217.70599365234375 C63.263999938964844,-255.99600219726562 84.23799896240234,-270.7650146484375 117.05799865722656,-262.01300048828125 C143.67300415039062,-250.7050018310547 151.697998046875,-230.28700256347656 141.12600708007812,-200.74899291992188 C141.12600708007812,-200.74899291992188 13.675000190734863,-44.854000091552734 13.675000190734863,-44.854000091552734 C13.675000190734863,-44.854000091552734 13.675000190734863,0 13.675000190734863,0 C13.675000190734863,0 188.71499633789062,0 188.71499633789062,0 C188.71499633789062,0 188.71499633789062,-44.854000091552734 188.71499633789062,-44.854000091552734 C188.71499633789062,-44.854000091552734 72.2040023803711,-44.854000091552734 72.2040023803711,-44.854000091552734 C72.2040023803711,-44.854000091552734 175.0399932861328,-168.4759979248047 175.0399932861328,-168.4759979248047 C187.07400512695312,-186.33900451660156 191.62899780273438,-210.2270050048828 188.71499633789062,-240.13299560546875 C176.68099975585938,-286.8070068359375 140.75799560546875,-309.05499267578125 80.95600128173828,-306.86700439453125 C39.01599884033203,-294.8330078125 16.589000701904297,-265.10699462890625 13.675000190734863,-217.70599365234375z"></path><path stroke-linecap="butt" stroke-linejoin="miter" fill-opacity="0" stroke-miterlimit="4" stroke="rgb(0,0,0)" stroke-opacity="1" stroke-width="1" d=" M13.675000190734863,-217.70599365234375 C13.675000190734863,-217.70599365234375 54.15299987792969,-217.70599365234375 54.15299987792969,-217.70599365234375 C63.263999938964844,-255.99600219726562 84.23799896240234,-270.7650146484375 117.05799865722656,-262.01300048828125 C143.67300415039062,-250.7050018310547 151.697998046875,-230.28700256347656 141.12600708007812,-200.74899291992188 C141.12600708007812,-200.74899291992188 13.675000190734863,-44.854000091552734 13.675000190734863,-44.854000091552734 C13.675000190734863,-44.854000091552734 13.675000190734863,0 13.675000190734863,0 C13.675000190734863,0 188.71499633789062,0 188.71499633789062,0 C188.71499633789062,0 188.71499633789062,-44.854000091552734 188.71499633789062,-44.854000091552734 C188.71499633789062,-44.854000091552734 72.2040023803711,-44.854000091552734 72.2040023803711,-44.854000091552734 C72.2040023803711,-44.854000091552734 175.0399932861328,-168.4759979248047 175.0399932861328,-168.4759979248047 C187.07400512695312,-186.33900451660156 191.62899780273438,-210.2270050048828 188.71499633789062,-240.13299560546875 C176.68099975585938,-286.8070068359375 140.75799560546875,-309.05499267578125 80.95600128173828,-306.86700439453125 C39.01599884033203,-294.8330078125 16.589000701904297,-265.10699462890625 13.675000190734863,-217.70599365234375z"></path></g></g></g></svg>